# xmcd
#
# Track frame offsets: 
#        150
#        11160
#        21757
#        32228
#        41751
#        60529
#        77524
#        89427
#        105004
#        116906
#        135243
#        149924
#        160554
#        175421
#        188985
#
# Disc length: 2700 seconds
#
# Revision: 2
# Processed by: cddbd v1.5.2PL0 Copyright (c) Steve Scherf et al.
# Submitted via: ExactAudioCopy v0.95b4
#
DISCID=c30a8a0f
DTITLE=Ира Ежова - Малолетка
DYEAR=1997
DGENRE=Blues
TTITLE0=Малолетка
TTITLE1=Пьяная
TTITLE2=Курносая
TTITLE3=Камень
TTITLE4=Церковь
TTITLE5=На Больничной Кровати
TTITLE6=Маленькая Девочка c Панели
TTITLE7=Грусть
TTITLE8=Анна
TTITLE9=Дворик
TTITLE10=Наплевать
TTITLE11=Херсон
TTITLE12=Гроза
TTITLE13=Я Прошу Тебя Уйди
TTITLE14=Вовка
EXTD=
EXTT0=
EXTT1=
EXTT2=
EXTT3=
EXTT4=
EXTT5=
EXTT6=
EXTT7=
EXTT8=
EXTT9=
EXTT10=
EXTT11=
EXTT12=
EXTT13=
EXTT14=
PLAYORDER=
